<?xml version="1.0" encoding="UTF-8" standalone="no"?>
<!DOCTYPE svg PUBLIC "-//W3C//DTD SVG 1.1//EN" "http://www.w3.org/Graphics/SVG/1.1/DTD/svg11.dtd">
<svg width="100%" height="100%" viewBox="0 0 28 29" version="1.1" xmlns="http://www.w3.org/2000/svg" xmlns:xlink="http://www.w3.org/1999/xlink" xml:space="preserve" xmlns:serif="http://www.serif.com/" style="fill-rule:evenodd;clip-rule:evenodd;stroke-linejoin:round;stroke-miterlimit:2;">
    <g transform="matrix(1,0,0,1,0,-0.0668945)">
        <path d="M13.879,0.067C17.638,0.067 20.901,1.475 23.586,4.292C26.312,7.108 27.675,10.522 27.675,14.576C27.675,18.588 26.353,22.002 23.668,24.775C20.983,27.549 17.761,28.957 13.92,28.957C9.913,28.957 6.609,27.549 3.965,24.69C1.322,21.788 0,18.417 0,14.491C0,11.845 0.62,9.455 1.859,7.236C3.098,5.017 4.791,3.267 6.939,1.987C9.087,0.707 11.4,0.067 13.879,0.067ZM13.837,5.871C11.566,5.871 9.624,6.681 8.096,8.346C6.526,9.967 5.783,12.058 5.783,14.576C5.783,17.393 6.774,19.612 8.716,21.276C10.244,22.556 11.979,23.196 13.961,23.196C16.192,23.196 18.092,22.386 19.662,20.721C21.231,19.057 22.016,17.009 22.016,14.576C22.016,12.144 21.231,10.095 19.662,8.431C18.009,6.681 16.109,5.871 13.837,5.871Z" style="fill:rgb(64,64,64);fill-rule:nonzero;"/>
        <g id="Vector-1" transform="matrix(1,0,0,1,12.1758,14.5334)">
            <g transform="matrix(1,0,0,1,-5.5,-7.5)">
                <path d="M6.837,8.088L10.266,14.02L9.646,0.706L0.435,10.009L6.837,8.088Z" style="fill:rgb(255,71,0);fill-rule:nonzero;"/>
            </g>
        </g>
    </g>
</svg>
