<svg width="267" height="30" viewBox="0 0 267 30" fill="none" xmlns="http://www.w3.org/2000/svg">
<path d="M13.8787 1.06689C17.6375 1.06689 20.9007 2.47514 23.5856 5.29165C26.3117 8.10815 27.6748 11.5221 27.6748 15.5761C27.6748 19.5875 26.353 23.0015 23.6682 25.7753C20.9833 28.5491 17.7614 29.9574 13.92 29.9574C9.91337 29.9574 6.60891 28.5491 3.96535 25.6899C1.32178 22.7881 0 19.4168 0 15.4908C0 12.845 0.619585 10.4552 1.85876 8.23617C3.09793 6.01711 4.79146 4.26746 6.93936 2.98724C9.08725 1.70701 11.4004 1.06689 13.8787 1.06689ZM13.8374 6.87059C11.5656 6.87059 9.62423 7.6814 8.09592 9.3457C6.5263 10.9673 5.7828 13.0584 5.7828 15.5761C5.7828 18.3926 6.77413 20.6117 8.7155 22.276C10.2438 23.5562 11.9787 24.1963 13.9613 24.1963C16.1918 24.1963 18.0919 23.3855 19.6615 21.7212C21.2311 20.0569 22.0159 18.0086 22.0159 15.5761C22.0159 13.1437 21.2311 11.0953 19.6615 9.43105C18.0093 7.6814 16.1092 6.87059 13.8374 6.87059Z" fill="#10253E"/>
<path d="M171.956 1.87791C174.227 1.49384 177.16 1.23779 180.258 1.23779C185.463 1.23779 188.891 2.26198 191.452 4.26767C194.302 6.44405 196.078 9.90067 196.078 14.8936C196.078 20.2705 194.178 24.0258 191.576 26.3303C188.684 28.8054 184.306 29.9576 178.936 29.9576C175.756 29.9576 173.443 29.7442 171.914 29.5308V1.87791H171.956ZM178.11 24.8367C178.647 24.9647 179.515 24.9647 180.258 24.9647C185.876 25.0074 189.552 21.8068 189.552 15.1069C189.552 9.26055 186.247 6.14533 180.878 6.14533C179.556 6.14533 178.606 6.27336 178.069 6.40138V24.8367H178.11Z" fill="#10253E"/>
<path d="M111.815 8.62012C106.114 8.62012 101.488 13.3996 101.488 19.2887C101.488 25.1777 106.114 29.9572 111.815 29.9572C117.515 29.9572 122.141 25.1777 122.141 19.2887C122.141 13.3996 117.515 8.62012 111.815 8.62012ZM111.815 24.8363C109.254 24.8363 107.188 22.3612 107.188 19.2887C107.188 16.2161 109.254 13.741 111.815 13.741C114.375 13.741 116.441 16.2161 116.441 19.2887C116.441 22.3612 114.375 24.8363 111.815 24.8363Z" fill="#10253E"/>
<path d="M204.67 15.9173C204.67 12.9301 204.628 10.9671 204.505 9.21746H209.709L209.957 12.9728H210.122C211.113 9.9856 213.509 8.74805 215.409 8.74805C215.988 8.74805 216.235 8.79072 216.69 8.87607V14.8078C216.194 14.7224 215.74 14.6371 215.037 14.6371C212.807 14.6371 211.279 15.8746 210.866 17.8377C210.783 18.2644 210.742 18.7338 210.742 19.2459V29.5304H204.628V15.9173H204.67Z" fill="#10253E"/>
<path d="M222.266 21.3796C222.431 23.9828 224.951 25.2203 227.801 25.2203C229.907 25.2203 231.56 24.9216 233.212 24.3668L233.997 28.6343C231.973 29.4877 229.536 29.9145 226.892 29.9145C220.242 29.9145 216.401 25.9458 216.401 19.5873C216.401 14.4237 219.498 8.74805 226.314 8.74805C232.675 8.74805 235.071 13.869 235.071 18.8618C235.071 19.9287 234.947 20.9102 234.864 21.337H222.266V21.3796ZM229.453 17.0695C229.453 15.5333 228.792 12.9728 225.983 12.9728C223.422 12.9728 222.349 15.4052 222.225 17.0695H229.453Z" fill="#10253E"/>
<path d="M251.841 28.9756C250.767 29.5304 248.702 29.9145 246.388 29.9145C240.027 29.9145 235.979 25.9031 235.979 19.5446C235.979 13.6129 239.903 8.74805 247.215 8.74805C248.825 8.74805 250.602 9.04677 251.882 9.51618L250.932 14.2104C250.23 13.869 249.115 13.5702 247.504 13.5702C244.282 13.5702 242.217 15.9173 242.258 19.2459C242.258 22.9586 244.654 24.9216 247.628 24.9216C249.073 24.9216 250.189 24.6655 251.139 24.2388L251.841 28.9756Z" fill="#10253E"/>
<path d="M261.424 3.75537V9.21768H266.959L265.554 13.8692H261.424V21.2091C261.424 23.6416 262.043 24.7938 263.819 24.7938C264.646 24.7938 265.059 24.7511 265.637 24.6231L265.678 29.4026C264.935 29.7013 263.448 29.9574 261.754 29.9574C259.771 29.9574 258.119 29.2319 257.128 28.2077C256.013 27.0128 255.434 25.0498 255.434 22.1906V13.8692H251.965L252.791 9.21768H255.393V5.46234L261.424 3.75537Z" fill="#10253E"/>
<path d="M136.515 0H142.629V29.4452H136.515V0Z" fill="#10253E"/>
<path d="M28.7488 15.6615C28.7488 13.1437 28.6662 11.01 28.5835 9.17498H33.8707L34.1598 11.9915H34.2837C35.0685 10.6686 37.0512 8.70557 40.3557 8.70557C44.3623 8.70557 47.3776 11.4794 47.3776 17.4538V29.4453H41.3057V18.2219C41.3057 15.6188 40.4383 13.8265 38.2078 13.8265C36.5142 13.8265 35.5229 15.0214 35.0685 16.1736C34.9033 16.6003 34.862 17.1551 34.862 17.7525V29.4453H28.7488V15.6615Z" fill="#10253E"/>
<path d="M54.4409 21.4651C54.6061 24.0682 57.1257 25.3058 59.9758 25.3058C62.0824 25.3058 63.7346 25.007 65.3869 24.4523L66.1717 28.7197C64.1477 29.5732 61.7107 29.9999 59.0671 29.9999C52.4169 29.9999 48.5754 26.0312 48.5754 19.6728C48.5754 14.5092 51.6734 8.8335 58.4888 8.8335C64.8499 8.8335 67.2456 13.9544 67.2456 18.9473C67.2456 20.0141 67.1217 20.9957 67.0391 21.4224H54.4409V21.4651ZM61.628 17.155C61.628 15.6187 60.9672 13.0582 58.1584 13.0582C55.5974 13.0582 54.5648 15.4907 54.3995 17.155H61.628Z" fill="#10253E"/>
<path d="M76.3742 29.488L69.9305 1.49365H76.4568L78.5221 12.973C79.1417 16.3443 79.6787 18.6487 80.133 21.4652H80.2156C80.67 18.4353 81.2896 16.3443 81.9918 12.8877L84.2636 1.49365H90.7486L92.9378 13.2717C93.5574 16.5577 93.9704 18.2646 94.3835 21.3799H94.4661C94.8792 18.2646 95.4574 16.2589 96.0357 12.9304L98.2249 1.53633H104.462L97.4814 29.488H90.8725L88.6007 17.4538C88.0637 14.6373 87.6507 13.3144 87.3202 10.1139H87.2376C86.7419 13.2717 86.3289 14.6373 85.668 17.4538L83.107 29.488H76.3742Z" fill="#10253E"/>
<path d="M164.108 0V23.3855C164.108 25.6472 164.19 28.0797 164.273 29.4452H158.862L158.614 26.5007H158.49C157.292 28.7198 154.855 29.9146 152.335 29.9146C147.668 29.9146 143.95 25.8179 143.95 19.5021C143.909 12.6743 148.04 8.66287 152.748 8.66287C155.185 8.66287 157.044 9.55903 157.912 10.9246H157.994V0H164.108ZM158.036 17.7525C158.036 17.4111 158.036 16.9844 157.953 16.6003C157.581 14.936 156.259 13.5277 154.359 13.5277C151.551 13.5277 150.146 16.0882 150.146 19.2888C150.146 22.7454 151.798 24.8791 154.318 24.8791C156.094 24.8791 157.54 23.6415 157.912 21.8492C157.994 21.3798 158.036 20.9104 158.036 20.3983V17.7525Z" fill="#10253E"/>
<path d="M203.265 3.58465C203.265 5.3343 202.026 6.74255 199.961 6.74255C198.019 6.74255 196.78 5.3343 196.78 3.58465C196.78 1.79233 198.061 0.426758 200.043 0.426758C202.026 0.426758 203.224 1.79233 203.265 3.58465ZM196.987 29.5306V9.21765H203.1V29.4879H196.987V29.5306Z" fill="#10253E"/>
<path d="M123.463 15.8321C123.463 12.8449 123.421 10.8819 123.297 9.13221H128.502L128.75 12.8449H128.915C129.906 9.85767 132.302 8.62012 134.202 8.62012C134.78 8.62012 135.028 8.66279 135.483 8.74814V14.6799C134.987 14.5945 134.533 14.5092 133.83 14.5092C131.6 14.5092 130.072 15.7467 129.659 17.7097C129.576 18.1365 129.535 18.6059 129.535 19.118V29.4451H123.421V15.8321H123.463Z" fill="#10253E"/>
<path d="M13.8374 16.0882L17.2658 22.0199L16.6462 8.70557L7.43504 18.0086L13.8374 16.0882Z" fill="#FF4700"/>
</svg>
