<svg width="90" height="29" viewBox="0 0 90 29" fill="none" xmlns="http://www.w3.org/2000/svg">
<path d="M14.4344 0C18.3437 0 21.7375 1.41359 24.5298 4.24077C27.3652 7.06795 28.7828 10.4948 28.7828 14.5643C28.7828 18.5908 27.4081 22.0177 24.6158 24.8021C21.8234 27.5864 18.4726 29 14.4773 29C10.3103 29 6.87351 27.5864 4.12411 24.7164C1.3747 21.8464 0 18.4195 0 14.4786C0 11.8227 0.644391 9.42393 1.93317 7.19646C3.22196 4.96898 4.98329 3.2127 7.21718 1.92762C9.45107 0.642541 11.8568 0 14.4344 0ZM14.3914 5.8257C12.0286 5.8257 10.0095 6.63959 8.42005 8.31019C6.78759 9.93796 6.01432 12.0369 6.01432 14.5643C6.01432 17.3914 7.04535 19.6189 9.06444 21.2895C10.6539 22.5746 12.4582 23.2171 14.5203 23.2171C16.8401 23.2171 18.8162 22.4033 20.4487 20.7326C22.0811 19.062 22.8974 17.0059 22.8974 14.5643C22.8974 12.1226 22.0811 10.0665 20.4487 8.39586C18.7303 6.68242 16.7542 5.8257 14.3914 5.8257Z" fill="#10253E"/>
<path d="M65.1264 1.07092C67.4463 0.685392 70.4964 0.428375 73.6754 0.428375C79.0453 0.428375 82.568 1.4136 85.2314 3.4269C88.1527 5.61154 89.9999 9.03842 89.9999 14.0074C89.9999 19.3619 88.0238 23.0886 85.3603 25.359C82.3961 27.8006 77.8424 29 72.3436 29C69.0357 29 66.673 28.7858 65.1264 28.5717V1.07092ZM71.4415 23.9025C71.9999 24.031 72.9021 24.031 73.6324 24.031C79.4319 24.0739 83.2124 20.904 83.2124 14.2216C83.2124 8.39588 79.7756 5.31168 74.2768 5.31168C72.9021 5.31168 71.957 5.44019 71.3985 5.5687V23.9025H71.4415Z" fill="#10253E"/>
<path d="M34.2817 28.4003L27.58 0.342682H34.3676L36.5155 11.8656C37.1599 15.2496 37.7184 17.5628 38.191 20.3899H38.2769C38.7494 17.3486 39.3938 15.2496 40.1241 11.7799L42.5299 0.342682H49.2745L51.5513 12.1654C52.1957 15.4638 52.6253 17.1772 53.0549 20.3043H53.1408C53.5704 17.1772 54.1719 15.164 54.7733 11.8227L57.0501 0.385518H63.537L56.2769 28.4431H49.4034L47.0406 16.3634C46.4821 13.5362 46.0525 12.2083 45.7089 8.99556H45.6229C45.1074 12.1654 44.6778 13.5362 43.9905 16.3634L41.2411 28.4003H34.2817Z" fill="#10253E"/>
<path d="M14.3914 15.0783L17.957 21.0325L17.3126 7.66766L7.73267 17.0059L14.3914 15.0783Z" fill="#FF4700"/>
</svg>
