<?xml version="1.0" encoding="UTF-8" standalone="no"?>
<!DOCTYPE svg PUBLIC "-//W3C//DTD SVG 1.1//EN" "http://www.w3.org/Graphics/SVG/1.1/DTD/svg11.dtd">
<svg width="100%" height="100%" viewBox="0 0 204 204" version="1.1" xmlns="http://www.w3.org/2000/svg" xmlns:xlink="http://www.w3.org/1999/xlink" xml:space="preserve" xmlns:serif="http://www.serif.com/" style="fill-rule:evenodd;clip-rule:evenodd;stroke-linejoin:round;stroke-miterlimit:2;">
    <g transform="matrix(1,0,0,1,0.0519739,0)">
        <g>
            <g transform="matrix(0.974671,0,0,1,2.55689,0)">
                <rect x="100.948" y="0" width="2.052" height="20.326" style="fill:white;"/>
                <g transform="matrix(1,0,0,1,0,183.674)">
                    <rect x="100.948" y="0" width="2.052" height="20.326" style="fill:white;"/>
                </g>
            </g>
            <g transform="matrix(0.955943,0.190149,-0.19509,0.980785,24.3659,-17.4303)">
                <rect x="100.948" y="0" width="2.052" height="20.326" style="fill:white;"/>
                <g transform="matrix(1,0,0,1,0,183.674)">
                    <rect x="100.948" y="0" width="2.052" height="20.326" style="fill:white;"/>
                </g>
            </g>
            <g transform="matrix(0.900479,0.372991,-0.382683,0.92388,49.1563,-30.2711)">
                <rect x="100.948" y="0" width="2.052" height="20.326" style="fill:white;"/>
                <g transform="matrix(1,0,0,1,0,183.674)">
                    <rect x="100.948" y="0" width="2.052" height="20.326" style="fill:white;"/>
                </g>
            </g>
            <g transform="matrix(0.81041,0.541498,-0.55557,0.83147,75.9755,-38.0287)">
                <rect x="100.948" y="0" width="2.052" height="20.326" style="fill:white;"/>
                <g transform="matrix(1,0,0,1,0,183.674)">
                    <rect x="100.948" y="0" width="2.052" height="20.326" style="fill:white;"/>
                </g>
            </g>
            <g transform="matrix(0.689197,0.689197,-0.707107,0.707107,103.793,-40.405)">
                <rect x="100.948" y="0" width="2.052" height="20.326" style="fill:white;"/>
                <g transform="matrix(1,0,0,1,0,183.674)">
                    <rect x="100.948" y="0" width="2.052" height="20.326" style="fill:white;"/>
                </g>
            </g>
            <g transform="matrix(0.541498,0.81041,-0.83147,0.55557,131.539,-37.3089)">
                <rect x="100.948" y="0" width="2.052" height="20.326" style="fill:white;"/>
                <g transform="matrix(1,0,0,1,0,183.674)">
                    <rect x="100.948" y="0" width="2.052" height="20.326" style="fill:white;"/>
                </g>
            </g>
            <g transform="matrix(0.372991,0.900479,-0.92388,0.382683,158.148,-28.8592)">
                <rect x="100.948" y="0" width="2.052" height="20.326" style="fill:white;"/>
                <g transform="matrix(1,0,0,1,0,183.674)">
                    <rect x="100.948" y="0" width="2.052" height="20.326" style="fill:white;"/>
                </g>
            </g>
            <g transform="matrix(0.190149,0.955943,-0.980785,0.19509,182.598,-15.3806)">
                <rect x="100.948" y="0" width="2.052" height="20.326" style="fill:white;"/>
                <g transform="matrix(1,0,0,1,0,183.674)">
                    <rect x="100.948" y="0" width="2.052" height="20.326" style="fill:white;"/>
                </g>
            </g>
            <g transform="matrix(1.11022e-16,0.974671,-1,5.55112e-17,203.948,2.60886)">
                <rect x="100.948" y="0" width="2.052" height="20.326" style="fill:white;"/>
                <g transform="matrix(1,0,0,1,0,183.674)">
                    <rect x="100.948" y="0" width="2.052" height="20.326" style="fill:white;"/>
                </g>
            </g>
            <g transform="matrix(-0.190149,0.955943,-0.980785,-0.19509,221.378,24.4178)">
                <rect x="100.948" y="0" width="2.052" height="20.326" style="fill:white;"/>
                <g transform="matrix(1,0,0,1,0,183.674)">
                    <rect x="100.948" y="0" width="2.052" height="20.326" style="fill:white;"/>
                </g>
            </g>
            <g transform="matrix(-0.372991,0.900479,-0.92388,-0.382683,234.219,49.2083)">
                <rect x="100.948" y="0" width="2.052" height="20.326" style="fill:white;"/>
                <g transform="matrix(1,0,0,1,0,183.674)">
                    <rect x="100.948" y="0" width="2.052" height="20.326" style="fill:white;"/>
                </g>
            </g>
            <g transform="matrix(-0.541498,0.81041,-0.83147,-0.55557,241.977,76.0275)">
                <rect x="100.948" y="0" width="2.052" height="20.326" style="fill:white;"/>
                <g transform="matrix(1,0,0,1,0,183.674)">
                    <rect x="100.948" y="0" width="2.052" height="20.326" style="fill:white;"/>
                </g>
            </g>
            <g transform="matrix(-0.689197,0.689197,-0.707107,-0.707107,244.353,103.845)">
                <rect x="100.948" y="0" width="2.052" height="20.326" style="fill:white;"/>
                <g transform="matrix(1,0,0,1,0,183.674)">
                    <rect x="100.948" y="0" width="2.052" height="20.326" style="fill:white;"/>
                </g>
            </g>
            <g transform="matrix(-0.81041,0.541498,-0.55557,-0.83147,241.257,131.591)">
                <rect x="100.948" y="0" width="2.052" height="20.326" style="fill:white;"/>
                <g transform="matrix(1,0,0,1,0,183.674)">
                    <rect x="100.948" y="0" width="2.052" height="20.326" style="fill:white;"/>
                </g>
            </g>
            <g transform="matrix(-0.900479,0.372991,-0.382683,-0.92388,232.807,158.2)">
                <rect x="100.948" y="0" width="2.052" height="20.326" style="fill:white;"/>
                <g transform="matrix(1,0,0,1,0,183.674)">
                    <rect x="100.948" y="0" width="2.052" height="20.326" style="fill:white;"/>
                </g>
            </g>
            <g transform="matrix(-0.955943,0.190149,-0.19509,-0.980785,219.329,182.65)">
                <rect x="100.948" y="0" width="2.052" height="20.326" style="fill:white;"/>
                <g transform="matrix(1,0,0,1,0,183.674)">
                    <rect x="100.948" y="0" width="2.052" height="20.326" style="fill:white;"/>
                </g>
            </g>
        </g>
    </g>
</svg>
